<?xml version="1.0" encoding="UTF-8"?>
<svg version="1.1" viewBox="0 0 2000 2000" width="60" height="60" xmlns="http://www.w3.org/2000/svg">
<path transform="translate(937,859)" d="m0 0h116l30 1 25 2 40 4 44 6 50 9 42 10 36 10 20 7 29 12 16 8 18 11 13 10 8 8 12 16 14 24 12 25 15 37 11 30 13 42 13 49 16 62 4 3 47 10 49 13 65 18 46 16 45 17 27 12 27 14 27 16 10 7 15 11 10 9 13 12 11 13 9 14 7 15 3 12 1 7v22l-3 15-8 18-11 16-12 14-10 10-11 9-15 11-15 10-19 11-23 12-32 15-32 13-20 7-34 11-41 12-42 11-52 12-46 9-72 12-66 9-64 8-41 4-50 4-63 4-61 3-41 1h-119l-48-1-88-4-74-5-48-4-40-4-59-8-58-9-37-6-65-13-53-12-49-13-50-16-34-12-30-13-34-16-30-16-16-10-14-10-10-8-13-12-7-7-9-11-9-14-8-16-4-14v-28l5-17 8-16 6-10 12-14 20-20 17-13 13-9 13-8 21-12 32-16 31-13 36-13 40-13 86-24 49-14 2-2 4-22 1-22v-49l6-32 6-24 10-30 11-26 9-19 12-20 8-12 12-17 8-11 9-10 12-10 13-8 22-12 22-10 28-10 28-9 22-6 48-10 27-5 35-5 50-5 28-3 21-1z" fill="#080C07"/>
<path transform="translate(1536,1283)" d="m0 0h10l21 4 16 4 38 10 18 5 39 12 29 10 30 12 19 8 17 9 9 5 13 8 18 12 11 9 12 11 5 5 9 10 9 15 4 12 1 6v21l-4 13-4 9-7 11-9 11-10 10-8 7-19 14-9 6-11 6-10 6-16 8-12 5-11 5-19 8-18 7-15 5-10 4-20 6-19 6-30 8-19 5-26 6-12 3-25 5-51 10-17 3-44 7-52 7-72 8-78 7-55 3-48 2-39 1h-88l-84-1-28-1-53-3-76-5-70-7-73-9-41-6-30-5-75-15-26-6-18-5-17-4-18-5-19-6-17-5-24-9-14-5-11-5-16-6-12-6-10-4-22-11v-2l-6-2-8-4v-2l-5-1-11-8-5-4-3-1-5-5-13-12-6-5-8-11-6-8-3-5-4-10-3-11v-18l1-1 2-9 5-13 3-4 3-5 4-6 11-12 8-8 14-11 11-8 18-10h2v-2l6-3 16-9 14-6 8-4 16-6 13-5 10-4 14-5 12-5 20-6 9-3 18-5 22-6 16-4 18-4 10-1-2 22-8 57v13l3 6 3 4v2l3 1 7 9 12 12 11 9 5 3 3 3 9 7 9 5 14 9 16 8 23 11 14 6 14 5 11 5 22 7 23 6 21 6 20 5 21 5 20 4 33 6 48 7 45 5 54 4 25 1h105l50-2 52-4 51-6 49-7 30-5 24-5 16-4 15-3 19-5 18-5 27-8 14-5 13-4 13-5 11-5 13-5 10-5 10-4 15-8 11-6 19-12 14-10 14-11 10-8 3-5v-8l-7-35-4-21-1-6v-8l1-5z" fill="#FDFDE0"/>
<path transform="translate(1440 1e3)" d="m0 0 3 1v3l2 1 8 16 12 30 4 11 5 14 3 9 4 10 2 9 4 10 3 11 2 9 3 9 2 9 2 7 4 13 1 7 3 9 1 5-1 2h2l1 7 2 7 1 3-1 2 2 1 1 7 2 6-1 2 2 1 2 9 4 20 1 7 1 4v12h1v26l-1 1-1 7-6 5-9 1-7-4-5-6-7-19-4-11-6-12-1-4-3-1-4-5-2-1v-2l-4-1-5-2-5-1h-8l-10 3-8 5-3 1-2 4-3 1-2 9h-2l1 6v18l1 5-1 2h2l1 9 5 12 8 16v3l2 1 3 5v3l2 1 4 9 1 3-1 2h2l-1 6h2l-1 14-3 9-2 3h-2l-1 4-6 5-7 3h-13l-7-3v-2l-5-2-1-4h-2l-1-8v-12l4-18 3-10 1-8 1-12-1-12-5-10-4-6-3-3-11-7-6-3-9-2-5-1v-2l-3 1h-8v-2l-13 1v1h-15l-1 1h-7l-1 1h-7l-1 1-12 1-6 2-8 1-18 6-8 2-10 4-11 4-10 4-9 4-10 4h-3l-1 2-9 4-17 8-3 2h-3v2l-9 5h-3l-1 2-4 1-1 2-17 9-7 2-6 3-10 1-2 1h-24l-10-1-7-2-10-3-12-7-6-4v-2l-4-1-8-5-9-6-19-9-13-5-5-2-6-2-8-2-12-2-2-1-6-1h-6l-1-1h-8l-5-1-38-1-1 1h-11l-11 2-8 1-6 2-14 4-7 3-5 1-1 2-3 2h-3v2h-3v2l-10 8-5 7-6 11-3 6-2 6-2 9v5l-1 4v48l-1 3-1 9-4 11-3 6-3 3-3 5-3 3-3 1-3 3-8 3h-6v-2l-3 1-3-2v-2l-4-2-5-9-1-8v-12l1-7 2-7 3-7 5-11 6-12 6-11 3-6 4-9 2-9 1-5 2-9-1-15-4-16-4-10v-3h-2l-7-10-5-4v-2h-3v-2l-5-1-4-2-10-2h-11l-11 1-4 2-8 1-10 3-8 3-10 4-11 3-9 3-7 1v2l-4-1v2l-9 1v1h-11l-5-1v-2l-3 1-9-6-3-3v-3h-2v-3h-2l-4-7v-3h-2l-11-21v-3l-2-1-1-5-2-1-3-7v-2l-2-1-4-7v-3h-2v-3h-2l-3-5-5-4-3-3-5-3-6-2-6-1h-6l-1 1h-9l-9 2-4 2-5-1v2l-5 1h-10l-6-4-1-3-3-3-2-6-4-14v-29l1-8 1-3 1-9 1-8 2-6 2-12 1-4h2l-1-3 2-6 3-12 3-8 3-11 4-10 3-6 2-6 13-26 7-13 2-4 2-2 3-6 4 1-1 4 2 1 5 12 3 5v3l3 1 3 5 6 7 4 2 4 4 7 6 5 2 7 4 2 2 6 3 9 5 20 10 9 3 7 3 10 3 7 3 11 3v2l4-1 8 3h2v2l3-1 8 2v2l3-1 7 2 6 1v2l4-1 7 2 8 2 8 1 6 2 9 1 7 2 11 1 3 1 9 1 5 1 10 1 4 1 7 1 13 1 4 1h5l3 1 9 1 10 1h6l2 1h11l5 1h7l1 1h15l6 1h15l2 1h23l6 1h34l4 1h37l4-1h26l5-1h13l4-1h12l10-1 13-1 10-1 11-1 13-1 1-1h7l5-1 10-1 11-1 5-1 9-1 1-1h7l4-1 3 1v-2l6 1v-2h6l4-1 7-1 2 1v-2h5l6-2 9-1 6-2 9-1 7-2 9-2 10-2 7-2 10-2 6-2 11-3 9-3 10-4 10-3 14-6 17-8 9-5h3l1-2 6-4h3l1-2 4-1v-2h3v-2h3v-2h3v-2h3l1-3h3l2-4 5-3 3-3 2-3h2v-3l2-2 3-5 6-13 1-3z" fill="#57803F"/>
<path transform="translate(968,868)" d="m0 0h46l41 1 31 2 47 4 56 7 45 8 38 8 35 10 36 12 17 7 23 11 15 10 14 11 8 9 7 10 5 12v9l-3 12-7 12-11 12-10 8-19 12-19 10-31 13-33 11-34 9-47 10-49 8-34 4-44 4-77 4h-83l-69-4-47-5-38-5-37-6-49-10-31-8-44-15-22-9-17-9-12-8-10-8-8-7-7-8-6-9-3-9-1-5 1-14 5-10 10-14 9-9 16-11 9-5h2v-2l9-4 7-2v-2l13-5 22-9 26-8 33-9 41-9 27-5 53-7 48-5 40-3 20-1z" fill="#C4721D"/>
<path transform="translate(461,1225)" d="m0 0h2l5 5 8 4 17 2v-2l20-6h17l10 6 7 8 3 5v3h2l8 16 1 6h2l7 15v3h2l5 10 1 4h2l9 11 11 7 7 2v2l20-1 6-2 25-7 51-16h16l12 4 8 6 6 7 5 11 4 14v28l-5 15-7 14-5 9-2 2-4 10-5 12-4 15-1 5v15l3 13 7 10 7 4 3 1h15l10-4 8-6 6-8 6-12 3-12 2-21 1-42 3-14 5-12 7-11 7-7 5-4 11-6 14-5 25-5 12-2h49l30 5 19 6 15 6 16 9 10 5 11 7 7 5 16 8 13 4 20 3h17l14-4 9-3 13-5 17-9 16-8 12-7 8-4 7-3 16-7 23-9 20-7 33-9 14-3 11-1h39l13 3 8 4 10 8 6 9 1 3v17l-10 43v12l3 13h2l5 5 11 5 4 1h15l12-5 10-11 3-6 3-14v-12l-5-17-16-30-6-16-3-13v-20l6-9 11-7 6-2h7l7 4 8 7 7 14 6 19 4 9 1 5h2l5 5 6 3 4 1 16 1 3 7 8 39 1 4v13l-8 7-14 11-14 10-18 11-7 5-10 5-5 2-11 6-5 2-11 5-7 3-37 14-8 3-7 2-19 5-6 2-15 3-15 4-17 4-27 6-16 4-31 6-13 2-12 2-12 1-17 3-44 5-49 4-58 3h-102l-49-3-54-5-54-7-37-6-39-8-29-7-36-10-33-11-25-10-7-3-12-5-33-16-4-2v-2l-7-2v-2h-3v-2l-5-1-1-3-5-1-5-4v-2l-5-2-12-11-8-7-8-9v-2h-2l-8-11v-17l6-40 1-2 3-26 4-28 1-2 2-19 3-21z" fill="#FCD995"/>
<path transform="translate(1533,1255)" d="m0 0 7 1 28 7 19 5 16 4 13 3 9 3 13 4 16 4 5 2 13 3 8 3 39 12 21 7 10 4 13 5 25 10 5 3 7 3 8 3v2l10 3 17 9 9 5 14 9 15 10 14 11 8 6 19 19 9 13 1 5h2l6 12 4 20v12l-2 13-6 16-3 5-7 9-1 3h-2v3l-20 20-13 11-10 7-13 9-18 11-16 9-16 8-30 14-17 6-12 5-14 5-16 6-24 8-25 7-23 7-13 3-15 4-14 4-28 6-63 13-48 8-72 10-78 9-68 7-51 4-84 4-36 1h-159l-57-2-69-3-69-5-70-7-66-8-50-7-44-7-24-5-16-3-40-8-38-9-21-6-15-4-47-14-24-8-8-3-11-4-20-8-13-5-18-8-5-3-13-5-16-9-15-9-20-13-10-8-8-7-10-9-10-10v-2h-2l-10-14-8-14-4-14-1-8v-16l2-12 3-10 6-11 7-11 12-14 9-9 9-7 18-13 19-13 14-7 16-9 23-11 8-4 11-4 10-5 13-5 12-4 12-5 11-3 9-3 16-5 5-2 12-3 17-5 29-8 42-12 17-5 12-3h4l-1 11-6 2-48 12-20 6-24 7-13 4-10 4-11 3-8 3-18 7-8 4-13 5-5 3-7 3-12 5-12 6h-2v2l-8 4-14 8-9 6-4 1v2l-10 6-9 7-5 4h-2l-2 4-5 5-4 2v2h-2l-2 5-7 8-1 3h-2l-2 6-5 9-5 15v33l5 13 4 8 8 12 11 13 6 7 17 13 19 13 8 5 17 10 30 15 12 5 11 5 14 5 6 3 29 10 16 5 25 7 9 3 14 4 46 12 26 6 14 3 43 8 26 4 16 3 36 5 60 7 76 8 48 4 49 3 62 3h178l101-4 34-2 62-5 122-14 46-6 51-9 56-11 10-3 11-2 6-2 15-3 18-5 14-3 18-5 27-8 18-6 7-3 15-5 12-5 13-5 12-5 13-6 16-8 11-6 18-11 7-4 11-7 10-8 10-9 11-9 11-13 8-13 7-14 4-18v-13l-3-12v-5h-2l-2-5v-4h-2l-4-9-2-5h-2l-4-7-11-12-12-10-3-2v-2l-4-2-9-7-3-1v-2l-6-2v-2l-5-2-6-3v-2l-5-2-7-3v-2l-7-2v-2l-6-2-14-7-7-3-9-4-21-9-16-6-29-10-9-3-15-4-8-3-14-4-26-7-17-4-33-7-16-2-3-2z" fill="#FDFDDF"/>
<path transform="translate(1149,138)" d="m0 0 5 5 9 15 12 21 14 28 9 23 7 25 3 16 2 16v30l-4 24-10 30-11 21-11 16-11 14-13 13-20 15-26 14-38 18-23 12-14 10-13 12-11 13-8 16-4 15h-1l-1-8 1-21 2-14 6-23 6-17 11-25 14-24 12-19 10-14 12-17 12-15 10-13 11-14 13-17 13-18 11-16 13-22 4-9-12 13-9 11-10 11-9 11-10 11-9 11-11 12-9 11-12 14-11 13-22 28-10 15-12 20-9 17-6 15h-2l-5-16-4-22-1-28 1-22 4-26 6-21 8-17 7-11 15-16 9-8 13-10 14-9 20-13 16-11 19-14 7-7 6-5 12-16 8-16 4-13 2-14z" fill="#016239"/>
<path transform="translate(1104,523)" d="m0 0h29l23 3 30 7 53 13 23 4 9 1h10l14-2 8-2-1 13-5 16-5 9-5 5-7 6-11 4-6 1h-8l-15-3-37-13-27-9-28-7-27-4h-27l-16 4-10 6-4 6-1 3v8l3 6 7 6 11 5 21 5 20 2 44 1 31 2 25 4 21 7 12 7 10 10 7 14 2 10v15l-3 16-5 13-6 11-9 11-8 7-14 9-18 7-23 5-10 1h-28l-25-3-27-6-40-11-25-6-16-2h-13l-16 2-6 2h-4l1-4 4-11 7-12 8-9 11-7 11-4 3-1h17l28 6 46 14 23 5 21 3h19l17-3 11-4 10-6 4-2 2-4 3-4 3-11v-7l-5-10-6-4-9-3-20-2h-60l-32-3-24-5-17-6-15-8-10-8-6-7-6-10-3-10v-17l4-15 6-12 8-10 7-7 14-9 17-7 20-4z" fill="#016239"/>
<path transform="translate(817,177)" d="m0 0h2l2 16 5 14 7 11 9 11 14 11 13 8 16 9 22 12 18 12 13 12 8 11 8 16 6 21 3 17 1 13v16l-2 18-2 9-2 1-9-17-12-18-11-13-9-11-13-13-7-8-24-24-8-7-39-39-2-1 6 10 10 14 11 13 9 11 14 15 7 8 9 10 7 8 9 10 11 14 10 13 12 19 8 14 8 19 5 18 3 14v11l-2-4-9-17-10-11-14-10-23-11-27-10-26-12-14-9-14-12-7-7-11-14-8-14-6-12-6-18-3-19v-30l3-19 7-25 9-22z" fill="#8AB849"/>
<path transform="translate(682,555)" d="m0 0 3 1 1 5v20l-4 11-11 12-9 6-16 5-33 2-14 3-9 6-5 5-6 9-4 10-3 16v14l2 14 5 19 10 25 9 16 11 12 10 7 9 3 15 1 16-4 12-6 7-6 4-9v-15l-6-30v-16l-14 11-13 6-11 3h-9l-10-4-8-7-6-10-5-12 1-3h14l19-4 17-7 20-11 24-14h2l3 13 7 25 9 29 4 19 1 9v9l-3 16-5 12-7 11-8 9-13 10-16 8-15 5-12 2h-23l-16-4-16-8-14-11-9-9-9-12-9-15-10-23-6-20-3-18v-25l2-16 5-16 8-16 6-9 12-13 11-8 16-8 17-5 44-9 21-7 11-7z" fill="#026239"/>
<path transform="translate(1346,564)" d="m0 0 13 1 11 4 11 6 7 7 6 12 1 10-2 13-6 20-11 28-4 11 6 2 20 9 15 5 12 3h4l11-26 7-21 3-14v-21l-2-7v-6l13 2 11 4 9 5 7 6 6 10 1 4v18l-5 19-11 29-12 28-19 42-11 24-8 21-1 5v10l3 8 1 4h-15l-13-4-8-6-5-6-4-10v-13l3-12 9-24 12-28 1-4-8-1-27-9-22-11-2 6-15 33-8 19-2 6-1 14 3 9 2 5h-14l-13-4-10-6-7-9-2-7v-15l6-20 14-34 16-36 17-40 7-21 3-15v-19l-3-10z" fill="#016239"/>
<path transform="translate(1571,667)" d="m0 0h14l17 3 14 5 19 10 11 8 10 9 9 11 7 14 4 16v19l-3 17-5 16-7 17-12 23-12 18-11 14-16 16-15 10-14 6-13 3-13 1-19-3-19-7-16-9-14-11-8-8-9-13-6-13-3-13-1-9v-9l3-19 5-17 9-21 12-22 12-17 9-11 13-13 13-9 16-8 11-3zm9 39-10 3-12 7-12 11-9 10-12 19-12 23-6 16-3 14v22l4 12 6 8 7 6 12 6 7 2h17l11-4 11-8 7-6 9-11 8-11 10-17 8-16 7-19 3-16v-13l-3-12-4-8-7-8-10-6-13-4z" fill="#016239"/>
<path transform="translate(265,762)" d="m0 0h12l16 3 16 7 12 8 10 8 12 11 9 10 11 14 10 14 10 17 9 20 4 16 1 8v17l-3 15-8 16-7 10-9 10-13 11-13 8-12 6-13 4-6 1h-23l-15-4-16-8-11-7-11-10-8-7-10-11-11-14-9-13-11-19-6-15-5-19-1-8v-12l3-15 5-13 7-12 8-10 12-12 15-11 17-9 14-4zm-9 42-13 4-8 6-5 5-6 8-4 9-2 10 1 13 5 17 10 19 10 14 11 14 16 16 14 10 13 6 7 2h18l10-4 9-7 8-9 5-10 2-9v-10l-3-13-8-18-12-19-11-14-11-12-10-10-13-9-12-6-14-3z" fill="#016239"/>
<path transform="translate(808,530)" d="m0 0h24l15 3 10 4 11 7 11 10 8 11 6 11 7 16 6 20 5 27 2 22v12l-2 22-5 19-8 16-9 12-12 10-15 8-16 5-13 3-8 1h-21l-16-3-16-7-14-11-9-10-9-14-8-17-6-19-5-26-2-21v-13l1-18 5-21 8-17 10-13 7-7 13-9 17-7 15-4zm0 36-14 3-9 5-10 9-6 10-4 13-2 14v19l3 24 4 18 6 17 9 17 9 10 11 7 7 3 10 1 15-3 9-4 6-4 8-8 5-11 3-11 1-10v-20l-3-26-6-25-6-15-6-11-8-10-11-8-13-4z" fill="#016239"/>
<path transform="translate(420,657)" d="m0 0h21l10 3 12 7 12 12 8 13 5 14 1 6v15l-4 15-8 15-8 11-1 2 8-2h13l13 3 11 6 10 9 19 19 12 9 8 5 16 6 2 3-6 9-11 11-10 6-6 2-8 1-9-2-8-4-11-10-11-14-10-13-4-5-10-8-10-5-4-1h-10l-10 3-16 9-6 5 2 7 20 40 8 14 7 9 7 5 10 2-2 4-7 7-12 7-14 3-11-2-8-5-6-5-7-10-8-14-11-23-10-22-16-36-9-20-10-18-8-12-9-11-8-8-9-5 1-4 11-8 14-7 4-1h7l13 4 11 7 1-7 5-13 7-11 11-11 16-8zm-8 38-11 4-8 7-6 10-3 9v11l16 32 9 21 4 1 18-12 12-11 7-9 4-9 1-5v-14l-4-13-6-10-7-7-7-4-4-1z" fill="#026239"/>
<path transform="translate(1722,741)" d="m0 0 6 2 11 6 9 7 7 8 4 10v7l-2 7h22l10 3 11 6 11 9 7 10 5 11 2 10v9l-3 16-7 17-9 14-8 10-12 12-15 10-15 6-13 3h-15l-16-4-13-7-10-9-6-8-6-12v-2l-8 7-4 5h-2l-2 4-12 12-9 12-5 12v20l-9-3-11-6-11-11-4-8-1-4v-12l4-12 8-12 14-17 10-11 7-8 12-13 3-4h2l2-4 8-8 7-8 15-16 8-10 10-14 8-16 4-12zm32 64-5 2-13 16-8 10-12 14-9 11-14 15-1 7 4 10 7 7 12 6 5 1h7l11-3 8-4 9-7 8-7 9-11 9-14 4-11 1-4v-15l-5-10-8-7-10-5z" fill="#026239"/>
<path transform="translate(641,937)" d="m0 0 3 1 1 5-4 4-16 6-16 8-14 8-7 6-6 10-1 3v10l7 14 6 7 11 7 15 8 24 11 27 10 24 7 27 6 39 7 49 7 62 6 5 3-1 5-1 1h-11l-52-5-26-3-43-7-30-6-41-11-25-9-19-8-19-10-16-9-10-9-9-12-3-8v-14l3-7 6-9 8-8 14-9 17-8 18-7z" fill="#020203"/>
<path transform="translate(1229,1287)" d="m0 0h5l2 5-7 3-14 4-9 3h-3l-1 2-2-1-1 2-8 3h-3l-1 2-12 5h-2l-1 2-9 4-5 1-1 2-5 2h-3l-1 2-5 2h-3l-1 2-3 1h-3l-1 2-2-1-1 2-2-1-1 2h-6l-1 2-3-1-1 2-6 1-4-1-1 2-4-1-1 2-4-1-1 2-5 1h-8l-5-1-1-2-4 1v-2l-3 1v-2l-11-2v-2l-8-2-7-6h-2l-3-4-3-2-3-4 1-4 6 1 1 2 4 2 3 3 4 2 2 2 7 3v2l6 1 3 1v2l4-1v2l4-1 1 1h17l12-2 10-4 8-1 1-2 2 1 1-2 9-3 7-2 1-2 6-1 1-2 13-6 2 1 1-2 6-1 1-2 5-2h3l1-2 2-1 2 1 1-2h4l1-2 2 1 1-2 10-3 15-5z" fill="#030203"/>
<path transform="translate(441,1264)" d="m0 0h4l-1 11-6 2-48 12-20 6-24 7-13 4-10 4-11 3-8 3-4-1-1-3 10-7 8 1 3-4 9-2 4-3 5-1v-2l9-4 30-8 35-10 17-5z" fill="#FBFCF6"/>
<path transform="translate(514,1059)" d="m0 0 4 1 1 4-1 5h-2l1 4h-2l1 3-1 4h-2l1 3h-2l1 3h-2l1 3h-2l1 3h-2l1 3h-2l-1 10h-2l1 3h-2l1 3h-2v7h-2l1 4h-2l1 4h-2l1 3-1 5h-2l1 4-1 5h-2l1 4h-2l1 5h-2l1 5-1 5-1 7v15l-1 2 5 1v2l7 1v-2h8v6l-5 3-2-1-1 2h-8v-2l-3 1v-2l-4-2-4-4 1-3h-2v-15l1-1v-9h2l-1-7 1-4 1-8 1-4h2l-1-4 1-4h2l-1-5 1-3h2l-1-4 1-3h2v-8l1-3h2l-1-5 3-8 2-6 1-2h2l-1-3h2l-1-3h2l-1-3h2l-1-3h2l-1-5 4-6z" fill="#020304"/>
<path transform="translate(477,1267)" d="m0 0h6v11l-7 37-9 52-5 3-5-2v-7l2-6 6-37 8-40 3-10z" fill="#040705"/>
<path transform="translate(1388,969)" d="m0 0 5 2 5 5 4 5 2 6v10l-4 11-8 10-11 9-14 8-13 5h-6l-1-5 11-7 19-10 10-9 4-5 3-7v-10l-4-5v-2l-4-2-2-5z" fill="#020203"/>
<path transform="translate(1416,1373)" d="m0 0 5 2-1 7v9l3 10 1 2-1 5-4-1-5-10-2-7v-9h2l-1-3h2z" fill="#030203"/>
<path transform="translate(1525,1273)" d="m0 0h1v12h1v26l-1 1-1 7-5 4 2-4 1-3 1-42z" fill="#006138"/>
<path transform="translate(1533,1255)" d="m0 0 7 1 5 2v4l-4 3-5-1-3-2z" fill="#FBFCF7"/>
<path transform="translate(1836,1388)" d="m0 0 5 3 11 11 5 7h-3l-5-5v-2l-4-2-10-10z" fill="#286733"/>
<path transform="translate(470,1220)" d="m0 0 10 4 11-1v2l-5 1h-10l-6-4z" fill="#005D36"/>
<path transform="translate(1233,1511)" d="m0 0h11v1l-10 2-6-1v-1z" fill="#C9D396"/>
<path transform="translate(514,1059)" d="m0 0 4 1 1 2-6 1-2 5h-2l2-6z" fill="#005330"/>
</svg>
