<?xml version="1.0" encoding="UTF-8"?>
<svg version="1.1" viewBox="0 0 2000 2000" width="1280" height="1280" xmlns="http://www.w3.org/2000/svg">
<path transform="translate(0)" d="m0 0h2e3v2e3h-2e3z" fill="#FDFDFD"/>
<path transform="translate(983,336)" d="m0 0h34l30 4 25 5 30 10 23 11 21 13 34 23 33 22 16 11 60 40 37 25 24 16 37 25 48 32 34 23 12 8 43 29 69 46 10 7 12 8 43 29 30 20 19 13 13 10 11 10 9 11 7 10 8 16 5 13 3 19-1 17-4 15-8 19-10 15-9 10-12 12-15 11-1 2 5 2 14 12 8 7 7 8 9 12 8 15 7 19 2 17-1 16-4 15-6 15-6 11-9 12-11 12-10 9-12 9 4 4 14 11 15 15 12 17 7 15 5 14 2 16v9l-2 14-6 18-8 16-8 11-8 10h-2v2l-8 7-14 11-39 26-28 19-51 34-16 11-48 32-16 11-33 22-25 17-30 20-37 25-24 16-40 27-11 7-10 7-33 22-13 9-90 60-16 11-19 12-22 11-33 11-29 6-21 3-12 1h-27l-17-2-38-7-28-9-21-9-21-12-43-29-30-20-43-29-30-20-43-29-39-26-43-29-24-16-43-29-27-18-43-29-30-20-34-23-30-20-43-29-18-12-16-12-13-12-10-12-9-14-8-18-3-14v-27l3-15 6-15 9-15 8-10 7-8 8-7 12-10 5-4-12-9-10-9-12-12-11-16-9-19-3-11-1-7v-25l3-16 7-16 9-15 9-11 12-12 17-13-1-3-11-8-15-14-8-9-12-19-6-14-3-11-1-7v-24l3-15 5-13 9-16 11-14 13-13 13-10 39-26 13-9 24-16 28-19 24-16 40-27 36-24 43-29 54-36 28-19 15-10 28-19 57-38 19-13 57-38 28-19 24-16 14-9 17-10 20-9 27-9 20-4 27-4z" fill="#5C2FA1"/>
<path transform="translate(932,628)" d="m0 0h24l26 3 22 5 21 8 16 8 12 8 10 8 9 9 9 13 7 16 2 10v19l-4 15-5 10-9 12-1 2 12-5 15-6 27-8 15-3 9-1h43l21 3 28 8 20 9 12 7 12 8 13 11 12 12 9 13 6 13 3 10 1 5v19l-4 15-6 14-10 15-13 15-10 10-11 9-13 10-13 9-18 12-10 7-57 38-43 29-33 22-5 4-5-2-17-11-57-38-25-17-36-24-43-29-90-60-10-7-39-26-16-11-33-22-37-25-30-20 1-4 21-14 34-23 39-26 62-42 22-14 16-9 21-10 28-9 20-4z" fill="#FDFDFD"/>
<path transform="translate(1142,795)" d="m0 0h15l14 2 21 6 14 6 15 9 11 9 9 9 7 11 3 9 1 12-3 14-6 11-8 11-16 16-13 10-17 12-24 16-43 29-15 10-17 11-4 1-15-10-28-19-24-16-43-29-33-22-9-7 4-4 16-10 10-7 15-10 37-25 12-8 20-13 23-13 23-10 23-7 16-3z" fill="#5C2FA1"/>
<path transform="translate(925,680)" d="m0 0h25l19 4 14 5 15 8 12 9 7 6 9 13 4 9 1 4v12l-4 12-8 14-11 13-13 12-19 14-33 22-22 15-15 10-17 11-4 1-12-8-16-11-36-24-43-29-30-20v-4l45-30 25-17 33-22 15-9 16-8 12-5 19-5z" fill="#5C2FA1"/>
<path transform="translate(983,336)" d="m0 0h34l30 4 25 5 30 10 15 7v5l5-1 2 2-2 2 3 1v2l5 2 11 9v2l7 6 1 5 5 2-1 3 7 1 2 5 3 2v2h-2v2h-3l-5-6-9-2-5-2v-2l-5-1-3-2-2 2-4-1-10-4-4-2v3l-6 5h-2l-1-3-5-1-4 2-6-2-2 3-4-1-1-2-4 1-1 2h-3l-2-5-6 1h-6l-2 1 2 3-6 1v-3h-2l-1-2h-6l-5-1v5l-3 1h-6l-3-2v-3h-12l-1 4-7 1-3 1-6 1-3 1-5-2v-2l-4 1v7l-4-2-3-1-10 1-4 3h-2l-1 3h-9l-4-2-5 3-10 1-5 2-1 2-6 1v2h-10v3l-16 1-3 3-4-3-8 1-4-1-4 2-4-4h-4l-1 5-3-2v-2h-14l-2 2h-7l-10 2-1 2-11 2-2 2v2l-4 1-14 7-6-1-3 3-7-1-2 4-4 2-8 3-14 9-4-1-4 4h-4l3-4 2-1v-2h3l-1-2h-3l-1-4-2-1 27-18 43-29 36-24 14-9 17-10 20-9 27-9 20-4 27-4z" fill="#8959D7"/>
<path transform="translate(1116,363)" d="m0 0 5 1 12 7-2 4-4-1-7-4 3-2h-4l-3-1z" fill="#683BB0"/>
<path transform="translate(733,459)" d="m0 0h4l2 3v2l-5 3-2-7z" fill="#8657D4"/>
</svg>
