<?xml version="1.0" encoding="UTF-8"?>
<svg version="1.1" viewBox="0 0 2000 2000" width="1280" height="1280" xmlns="http://www.w3.org/2000/svg">
<path transform="translate(0)" d="m0 0h2e3v2e3h-2e3z" fill="#FDFDFC"/>
<path transform="translate(1e3 265)" d="m0 0h21l18 3 19 7 21 11 17 10 45 26 24 14 52 30 21 12 26 15 24 14 78 45 24 14 28 16 71 41 24 14 23 13 27 16 25 14 20 12 14 10 7 6 7 8 12 16 7 12 6 14 5 20 1 8v641l-4 23-8 21-9 15-11 13-11 11-14 10-52 30-17 10-28 16-26 15-24 14-21 12-52 30-24 14-78 45-24 14-21 12-26 15-29 17-28 16-26 15-24 14-45 26-17 7-20 5-7 1h-23l-20-4-16-5-21-11-24-14-78-45-90-52-19-11-24-14-23-13-17-10-19-11-21-12-24-14-26-15-48-28-18-10-62-36-43-25-10-8-10-9-11-13-7-11-8-16-6-20-3-20v-420l1-218 4-18 6-16 9-17 10-14 9-10 10-9 19-12 28-16 26-15 28-16 24-14 26-15 24-14 28-16 52-30 24-14 130-75 24-14 28-16 24-14 26-15 24-14 22-12 11-5 13-4 10-2z" fill="#FDFDFC"/>
<path transform="translate(1653,635)" d="m0 0 4 4 6 12 5 14 3 13 1 8v641l-4 23-8 21-9 15-11 13-11 11-14 10-52 30-17 10-28 16-26 15-24 14-21 12-52 30-24 14-78 45-24 14-21 12-26 15-29 17-28 16-26 15-24 14-45 26-17 7-20 5-7 1h-23l-20-4-16-5-21-11-24-14-78-45-90-52-19-11-24-14-23-13-17-10-19-11-21-12-24-14-26-15-48-28-18-10-62-36-43-25-10-8-10-9-11-13-6-10 3-3 15-8 15-9 52-30 24-14 78-45 72-42 4 2 13 22 12 17 11 14 11 13 9 10 10 10v2l4 2 13 13 11 9 13 11 18 13 20 13 19 11 25 13 28 12 35 12 26 7 30 6 41 5 14 1h38l23-2 31-4 35-7 27-8 23-8 26-11 22-11 19-11 20-13 11-8 17-13 15-13 11-11 6-5 7-8 10-10 9-11 12-15 13-18 12-19 6-11v-4l-6-2-22-13-57-33-24-14-21-12-17-10-26-15-12-7-3-1-9 14-13 16-9 10-19 19-17 13-21 13-19 9-14 5-16 5-28 5-10 1h-25l-23-3-23-5-24-8-25-12-18-11-12-9-13-11-18-18-13-17-10-15v-3l17-9 25-15 28-16 27-16 28-16 24-14 28-16 22-13 52-30 24-14 52-30 24-14 25-14 5-3 20-11 43-25 52-30 24-14 45-26 9-6 26-15 17-10 24-14 26-15 28-16 24-14 26-15 24-14 45-26 12-7h2z" fill="#32007D"/>
<path transform="translate(1e3 265)" d="m0 0h21l18 3 19 7 21 11 17 10 45 26 24 14 52 30 21 12 26 15 24 14 78 45 24 14 28 16 71 41 24 14 23 13 27 16 25 14 20 12 14 10 7 6 7 8 12 16 1 3-3 3-23 13-22 13-78 45-24 14-78 45-25 15-7 3-8-11-7-11-11-15-10-13-14-17-14-15-27-27-11-9-12-10-19-14-17-11-15-9-26-14-22-10-27-10-27-8-28-6-35-5-21-2-37-1-26 2-32 4-36 7-29 8-29 10-26 11-24 12-18 10-20 13-17 12-18 14-15 13-15 14-12 12-7 8-12 14-10 13-12 17-11 17-8 13-14 28-10 23-9 25-7 25-6 27-5 32-2 21-1 19v16l2 31 5 39 7 34 7 26 11 32 12 28 10 19 5 10-28 16-24 14-26 15-24 14-52 30-48 28-28 16-22 13-8 4-3-1-7-15-6-20-3-20v-420l1-218 4-18 6-16 9-17 10-14 9-10 10-9 19-12 28-16 26-15 28-16 24-14 26-15 24-14 28-16 52-30 24-14 130-75 24-14 28-16 24-14 26-15 24-14 22-12 11-5 13-4 10-2z" fill="#9D74D7"/>
<path transform="translate(994,787)" d="m0 0h42l19 3 21 5 20 7 21 10 18 11 19 14 13 12 11 11 11 14 13 18 2 4-5 4-27 15-22 13-24 14-23 13-27 16-28 16-26 15-29 17-28 16-24 14-26 15-27 16-28 16-25 15-8 4h-2l-1 2-11-23-9-24-6-25-3-17v-36l4-25 5-20 7-21 9-20 10-18 12-17 11-13 8-9 8-7 9-8 14-10 13-8 21-11 25-9 19-5z" fill="#9D74D7"/>
<path transform="translate(1301,881)" d="m0 0h33l1 1v12l-5 44h41l1-18 3-32 2-6 3-1h31l1 1-1 25-3 31h30l2 1v34l-1 1h-35l-2 19-3 27-1 3 31 1 1 2v22l-1 10-1 1-33 1-5 50-2 10-1 1h-35l-1-5 5-50 2-7h-41l-1 20-5 41-1 1h-36l-1-5 4-33 2-24h-30l-1-1v-34h36l1-18 3-27 1-5h-29l-1-1v-34l1-1h32l7-56z" fill="#FAF9FB"/>
<path transform="translate(1326,974)" d="m0 0h41l-4 37-2 12-2 1h-38l3-40z" fill="#32007D"/>
</svg>
