<?xml version="1.0" encoding="UTF-8"?>
<svg version="1.1" viewBox="0 0 2000 2000" width="1280" height="1280" xmlns="http://www.w3.org/2000/svg">
<path transform="translate(0)" d="m0 0h2e3v2e3h-2e3z" fill="#FDFDFD"/>
<path transform="translate(375,286)" d="m0 0h1277v12l-5 70-7 75-7 84-6 64-6 72-6 64-5 62-6 63-7 83-6 64-5 62-6 63-7 84-5 52-7 84-6 63-4 52-8 84-2 23-9 3-44 13-56 16-39 11-24 7-346 99-4 1h-11l-490-140-30-9-2-1-7-72-6-72-7-76-6-71-6-65-6-71-5-53-6-72-7-76-5-61-6-63-7-84-6-65-6-71-6-65-6-71-6-64-8-99v-8z" fill="#0176BB"/>
<path transform="translate(669,587)" d="m0 0h686l2 1-1 22-6 86-6 104-6 88-6 108-6 90-6 106-6 91-2 33-2 5-9 4-36 12-47 16-53 17-41 14-92 30-15 6h-6l-24-9-50-16-96-32-28-9-72-24-23-8-2-2-5-73-6-118v-13l1-1h150l1 11 3 64 1 18 10 3 51 17 29 10 52 18 10 4 30-11 36-12 47-16 40-14 1-7 3-49 5-71 2-32 1-9h-330l-1-1-5-87-2-47v-15l1-1h345l2-39 6-85 2-23 1-3h-517l-2-3-5-56-5-76v-15z" fill="#FDFDFD"/>
<path transform="translate(1075,398)" d="m0 0h383l70 1 1 4-3 50-6 67-6 72-5 53-3 38-3 36-7 77-6 72-7 77-5 61-5 52-7 85-9 100-3 39-5 52-7 83-6 62-2 2-31 9-164 47-70 20-88 25-46 13-17 5h-5l-1-1v-177l-1-2 8-2 28-10 56-18 41-14 49-16 43-14 36-12 35-12 3-2 1-4 6-94 4-63 5-90 7-106 5-92 6-86 6-106 6-82 1-9-345-1-1-1v-186l7-1z" fill="#0199E7"/>
<path transform="translate(989,1039)" d="m0 0h189l-1 23-3 47-5 71-1 20-1 7-12 5-132 45-11 4-7-3 3-1 5 2-1-6v-116l-1-70v-25l1-2h-23z" fill="#019AE8"/>
<path transform="translate(702,737)" d="m0 0h492l3 1-6 82-4 62-1 6-173 1h-117v-1h116l-1-2v-147l-309-1z" fill="#019AE8"/>
</svg>
