<?xml version="1.0" encoding="UTF-8"?>
<svg version="1.1" viewBox="0 0 2000 2000" width="1280" height="1280" xmlns="http://www.w3.org/2000/svg">
<path transform="translate(0)" d="m0 0h2e3v2e3h-2e3z" fill="#FCFCFC"/>
<path transform="translate(374,288)" d="m0 0h1254v12l-7 80-10 110-10 114-10 110-10 114-10 110-10 114-10 110-10 114-10 110-13 146-3 36-4 3-35 10-83 23-261 72-120 33-13 3-227-63-271-75-13-4-2-9-14-155-21-235-14-157-15-169-23-257-13-147-11-124-2-28z" fill="#E65727"/>
<path transform="translate(607,550)" d="m0 0h787v12l-4 47-8 84-1 14-1 1-300 1h-57l-245-1 1 2 14 155v3h573v14l-15 168-11 122-13 146-3 32-6 3-28 8-34 9-50 14-120 33-33 9-24 7-25 7h-7l-42-12-51-14-203-56-23-7-2-12-14-153-6-71v-11h157l2 3 10 115 1 6 24 7 75 20 51 14 25 7 16-4 105-28 47-13 7-1 1-21 10-116 6-66h-312l-232-1-1-2-6-62-26-292-10-112v-7z" fill="#FCFCFC"/>
</svg>
