<?xml version="1.0" encoding="UTF-8"?>
<svg version="1.1" viewBox="0 0 2000 2000" width="1280" height="1280" xmlns="http://www.w3.org/2000/svg">
<path transform="translate(0)" d="m0 0h2e3v2e3h-2e3z" fill="#FEFEFD"/>
<path transform="translate(586,259)" d="m0 0h13l10 4 28 16 24 14 26 15 21 12 24 14 14 8 24 14 16 9 24 14 56 32 15 9 7 8 3 10-1 227v209l1 150 5-2 15-9 56-32 27-16 10-6 11-6 56-32 22-13 24-14 1-301 2-9 7-8 11-7 26-15 42-24 17-10 42-24 26-15 17-10 21-12 26-15 24-14 22-13 10-4h7l12 5 26 15 24 14 28 16 13 8 11 6 21 12 52 30 38 22 24 14 18 10 15 9 5 4v2h2l4 8 1 6v314l-2 8-6 9-16 10-21 12-26 15-24 14-25 14-9 6-8 4-43 25-28 16-24 14-21 12-16 9-4 3-1 9v292l-3 10-6 7-13 8-56 32-18 11-11 6-21 12-26 15-24 14-10 6-11 6-24 14-56 32-13 8-11 6-24 14-56 32-13 8-11 6-24 14-56 32-19 11-17 10-16 9-14 8-10 5-3 1h-9l-12-5-21-12-6-4-11-6-28-16-17-10-49-28-17-10-71-41-21-12-17-10-9-5-13-8-6-3-45-26-19-11-12-7-9-5-24-14-21-12-26-15-24-14-11-6-10-6-24-14-25-14-11-8-5-7-1-4v-952l3-6 4-5 15-9 26-15 10-6 11-6 14-8 24-14 14-8 24-14 23-13 24-14 26-15 21-12 17-10 23-13z" fill="#FD2E26"/>
<path transform="translate(344,480)" d="m0 0 5 2 17 10 23 13 21 12 26 15 29 17 21 12 26 15 28 16 17 10 13 8 1 3v80l1 536 4 8 8 7 12 7 33 18 42 24 23 13 14 8 12 7 9 5 69 39 21 12 24 14 1 1v261l-5-1-41-24-56-32-48-28-23-13-24-14-28-16-17-10-28-16-26-15-24-14-14-8-24-14-25-14-24-14-26-15-21-12-24-14-17-10-6-5-1-43v-742l1-98z" fill="#FEFEFD"/>
<path transform="translate(1389,1106)" d="m0 0h3v258l-9 7-18 10-24 14-18 10-17 10-21 12-17 10-35 20-17 10-24 14-16 9-24 14-23 13-24 14-21 12-19 11-26 15-29 17-25 14-17 10-28 16-19 11-21 12-4 3h-5l-1-9v-249l1-3 12-7 11-6 24-14 25-14 24-14 25-14 24-14 25-14 24-14 25-14 24-14 25-14 24-14 25-14 24-14 25-14 24-14 25-14 24-14 25-14 22-13z" fill="#FEFEFD"/>
<path transform="translate(1141,934)" d="m0 0 5 2 8 5 26 15 28 16 17 10 14 8 8 5 6 3 24 14 28 16 19 11 39 23 5 3-4 4-12 6-19 11-25 14-10 6-14 8-19 11-23 13-26 15-16 9-19 11-23 13-26 15-35 20-23 13-26 15-63 36-22 13-11 6-23 13-24 14-25 14-9 6h-7l-9-6-19-10-10-6-25-14-49-28-39-22-46-26-19-11-7-4v-3l9-4 43-25 25-14 24-14 28-16 22-13 28-16 26-15 28-16 22-13 56-32 26-15 10-6 24-14 25-14 24-14 31-18 14-8 24-14z" fill="#FEFEFD"/>
<path transform="translate(842,480)" d="m0 0 2 1v571l-9 6-49 28-39 23-11 6-24 14-16 9-43 25-25 14-11 6-1-65v-459l1-49 5-3 26-15 21-12 10-6 28-16 24-14 23-13 17-10 8-5 11-6 10-6 11-6 24-14z" fill="#FEFEFD"/>
<path transform="translate(1412,464)" d="m0 0 7 1 9 5 24 14 28 16 13 8 18 10 24 14 23 13 15 9 23 13 27 16 16 9 2 3-8 5-17 10-43 25-10 6-11 6-26 15-14 8-43 25-10 6-11 6-31 18-6-1-24-14-25-14-10-6-14-8-24-14-49-28-22-13-28-16-25-15-2-3 12-6 13-8 56-32 24-14 15-9 11-6 24-14 25-14 17-10 21-12z" fill="#FEFEFD"/>
<path transform="translate(592,308)" d="m0 0 5 1 10 6 9 5 13 8 19 11 11 6 24 14 18 10 30 18 6 3 24 14 28 16 19 11 12 7-1 3-56 32-10 6-21 12-19 11-26 15-14 8-15 9-25 14-24 14-13 8-6-1-10-6-28-16-26-15-21-12-10-6-14-8-24-14-23-13-36-21-21-12-9-6v-3l12-6 11-7 11-6 10-6 11-6 24-14 23-13 45-26 24-14 28-16 24-14z" fill="#FEFEFD"/>
<path transform="translate(1164,636)" d="m0 0 5 1 22 12 17 10 19 11 21 12 24 14 28 16 19 11 9 5 10 6 24 14 26 15 4 3v259l-5-2-16-9-24-14-25-14-17-10-26-15-23-13-15-9-28-16-26-15-22-13-2-3v-255z" fill="#FEFEFD"/>
<path transform="translate(1663,636)" d="m0 0h2v258l-10 7-13 7-24 14-21 12-26 15-29 17-14 8-24 14-27 15-34 20-5 1-1-2v-254l1-3 16-9 7-4 17-10 24-14 25-14 17-10 45-26 52-30 17-10z" fill="#FEFEFD"/>
</svg>
