<?xml version="1.0" encoding="UTF-8"?>
<svg version="1.1" viewBox="0 0 2000 2000" width="1280" height="1280" xmlns="http://www.w3.org/2000/svg">
<path transform="translate(0)" d="m0 0h2e3v2e3h-2e3z" fill="#FDFDFD"/>
<path transform="translate(968,314)" d="m0 0h70l28 2 39 5 40 8 37 10 36 12 21 8 23 10 29 14 24 13 25 15 15 10 14 10 16 12 13 10 17 14 8 7 10 9 15 14 21 21 7 8 10 11 8 10 13 16 12 16 10 14 18 27 13 22 12 22 10 19 9 19 7 15 10 26 12 35 10 35 7 29 5 26 5 33 3 26 3 49v52l-3 48-5 40-7 37-7 30-13 43-12 35-12 28-8 15-12 19-8 12-10 13-8 8-15 10-13 5-14 2h-12l-17-3-9-3-1 166-3 19-6 16-9 15-12 13-10 8-16 9-18 6-11 2h-17l-17-3-15-6-13-7-13-10-7-7-9-13-7-14-5-17-1-8v-270l-8 7-13 18-11 18-12 19-9 12-9 10-15 12-12 6-13 4-5 1h-9l-16-3-11-5h-3l-1 107v194l-3 16-5 13-8 15-8 10-9 10-9 8-15 9-15 6-15 4-8 1h-18l-18-3-15-5-15-8-13-10-13-13-9-13-7-14-5-17-2-16v-356l-5 5-7 12-11 16-9 11-8 8-13 9-14 6-10 2h-19l-14-4-15-8-14-11-5-6-2-1v142l-2 16-5 16-8 15-9 11-10 10-10 7-15 8-15 5-10 2h-20l-15-3-14-5-13-7-11-8-12-12-10-15-5-11-4-12-2-13-1-176-10 16-11 15-13 13-14 9-15 6-5 1h-21l-16-5-14-8-13-11-8-10-13-23-11-22-16-37-9-24-13-38-10-37-8-39-5-33-3-29-2-39v-56l2-33 5-42 7-39 7-31 9-31 11-33 12-31 13-30 14-28 14-24 8-14 7-11 8-12 11-16 18-24 11-13 8-10 9-10 12-13 10-11h2v-2h2v-2l8-7 15-15 8-7 15-13 10-8 17-13 17-12 27-18 21-12 22-12 15-8 31-14 26-10 36-12 37-10 32-7 32-5 31-3z" fill="#FB73A6"/>
<path transform="translate(960,498)" d="m0 0h44l21 2 27 5 27 8 20 8 25 12 22 14 13 9 13 10 14 12 12 11 9 9 7 8 10 11 12 16 16 24 12 20 8 16 9 21 7 19 7 23 6 27 4 26 2 33v20l-2 33-4 29-5 24-8 28-8 21-12 25-10 16-11 15-9 11-2 3h-2l-2 4-15 15-11 9-16 12-22 13-21 10-21 8-22 7-26 6-23 4-27 3-31 2h-35l-37-3-32-5-27-6-26-8-21-8-25-12-18-11-12-9-11-9-13-12-10-10-9-11-11-15-12-19-12-24-6-15-8-26-6-26-5-32-2-23-1-20v-12l2-28 4-30 6-27 7-24 8-22 11-24 9-17 14-23 14-20 13-16 9-10 14-15 8-8 11-9 8-7 15-11 15-10 17-10 15-8 19-8 30-10 29-6z" fill="#FDFDFD"/>
<path transform="translate(986,1245)" d="m0 0h20l12 3 16 8 10 8 12 11 13 17 8 11 10 14 12 17 11 12 10 9 11 7v304l-3 16-5 13-8 15-8 10-9 10-9 8-15 9-15 6-15 4-8 1h-18l-18-3-15-5-15-8-13-10-13-13-9-13-7-14-5-17-2-16v-360l7-10 9-12 12-13 11-9 14-7z" fill="#4D56A5"/>
<path transform="translate(1315,1245)" d="m0 0h21l15 4 15 8 11 10 5 5 12 13 28 40 10 12 4 5v2l4 2v2l4 2 13 10 10 6v167l-3 19-6 16-9 15-12 13-10 8-16 9-18 6-11 2h-17l-17-3-15-6-13-7-13-10-7-7-9-13-7-14-5-17-1-8v-270l4-5 13-9 12-5z" fill="#4D56A5"/>
<path transform="translate(654,1245)" d="m0 0h23l12 3 14 7 11 9 14 14 9 11 12 16 10 14 8 11 7 8 1 2v144l-2 16-5 16-8 15-9 11-10 10-10 7-15 8-15 5-10 2h-20l-15-3-14-5-13-7-11-8-12-12-10-15-5-11-4-12-2-13v-179l9-14 12-16 8-10h2l2-4 16-12 10-5z" fill="#4D56A5"/>
<path transform="translate(1472,545)" d="m0 0 1 2h2l7 8 2 5 4 2 6 6v2h2v2h2l2 5 4 2v2h2l10 14v2l3 1 4 6 5 8 4 4 4 7v2h2l4 4 3 6 6 9 4 7 10 17 12 23 10 19 9 19 4 10v4h2v4h2v6l5 1 10 25v3h2l8 27 7 28 6 31 5 33 3 26 3 49v52l-3 48-5 40-7 37-7 30-13 43-12 35-12 28-8 15-12 19-8 12-10 13-8 8-15 10-13 5-14 2h-12l-11-3v-1l-8-2-2-5v-3h-2l2-6 12-19 14-25 9-16 11-23 10-22 10-25 14-43 9-32 9-40 6-36 4-37 2-51v-33l-3-54-5-38-8-42-9-39-9-35-10-34-8-24-4-10-13-34-12-29-10-23-7-15-13-26z" fill="#DE51A5"/>
<path transform="translate(883,598)" d="m0 0h26l15 3 18 6 17 9 12 9 15 15 9 13 9 15 8 20 4 16 2 15v19l-4 23-6 18-8 17-10 15-11 12-8 8-14 10-17 9-15 5-13 3-10 1h-14l-19-3-15-5-21-11-12-9-11-10-9-11-10-15-8-17-5-15-4-20v-28l5-26 4-12 10-19 9-13 11-12 11-11 15-10 15-7 17-5z" fill="#020777"/>
<path transform="translate(866,638)" d="m0 0h18l12 3 15 8 11 10 8 12 3 7 3 15v10l-3 15-8 15-9 10-9 7-10 5-11 3h-21l-13-4-11-6-10-9-7-9-5-11-3-9-1-7v-11l4-16 6-11 7-9 13-10 13-6z" fill="#FDFDFD"/>
<path transform="translate(986,1245)" d="m0 0h20l12 3 16 8 10 8 2 4-6-2h-6l-10 5-9 7-9 8-7 8-11 15-16 26-10 15-9 12-11 12-5 5-10 7-4 1-1-2-1-86 7-10 9-12 12-13 11-9 14-7z" fill="#363F76"/>
<path transform="translate(1315,1245)" d="m0 0h21l15 4 15 8 11 10 3 2-1 3-7 1-8 7-10 10-10 13-13 20-14 22-10 14-9 11-12 12-6 3-1-3v-118l11-9 14-7z" fill="#363F76"/>
<path transform="translate(654,1245)" d="m0 0h23l12 3 14 7 11 9 6 6-1 3-5-3-5-5-8-3h-9l-16 7-12 8-15 15-12 16-8 13-11 17-7 11-10 13-12 13-3-1v-67l6-9 10-14 12-15h2l2-4 16-12 10-5z" fill="#363F76"/>
<path transform="translate(1381,1273)" d="m0 0 4 2 9 10 28 40 5 6-1 3-8-10-5-5-12-18-1-3h-2l-5-9-9-11v-2l-3-1z" fill="#3B4480"/>
<path transform="translate(1054,1276)" d="m0 0 5 3 11 14 10 14 11 16 9 12-1 2-5-5-13-17-4-7-3-3-6-9-10-13v-2h-2z" fill="#3E4788"/>
<path transform="translate(1054,1276)" d="m0 0 5 3 11 14 6 9-1 3-9-11-8-11v-2h-2z" fill="#3C4584"/>
<path transform="translate(736,1291)" d="m0 0 5 3 11 16-1 3-4-5-11-15z" fill="#3C4583"/>
<path transform="translate(1381,1273)" d="m0 0 4 2 9 10 3 4v2l-4-2-9-11v-2l-3-1z" fill="#3E4788"/>
<path transform="translate(1054,1276)" d="m0 0 5 3 7 9-3 1-5-6v-2h-2z" fill="#3D4685"/>
<path transform="translate(1429,1336)" d="m0 0 3 1 4 5v2l3 1v2l-4-2v-2h-2v-2h-2z" fill="#3D4686"/>
</svg>
