<?xml version="1.0" encoding="UTF-8"?>
<svg version="1.1" viewBox="0 0 2000 2000" width="1280" height="1280" xmlns="http://www.w3.org/2000/svg">
<path transform="translate(0)" d="m0 0h2e3v2e3h-2e3z" fill="#FEFEFE"/>
<path transform="translate(1315 1e3)" d="m0 0h99l24 3 17 6 13 7 6 5 9 13 3 9 1 5 1 118-1 17-4 14-8 11-11 8-4 3 15 14 10 9 11 10 8 7 1 3h-56l-11-9-13-12-6-5v-2l-4-2-6-5-12 1-14 1h-73l-18-3-16-5-12-6-10-8-7-9-4-9-2-12v-128l2-10 4-9 8-10 13-9 15-6 19-4z" fill="#C8964F"/>
<path transform="translate(385,998)" d="m0 0 13 1 12 4 9 6 7 7 8 14 12 27 15 35 20 46 12 28 11 25h2l4-10 9-20 13-29 11-25 7-15 18-40 11-24 6-11 7-8 14-8 14-3 17 1 18 4 11 6 7 8 4 10v204l-2 1h-30l-17-1-1-190-2 2-18 41-18 39-12 27-16 35-9 20-6 11-9 10-12 6-12 2h-14l-12-2-12-6-7-7-6-10-16-34-12-27-16-35-9-20-13-29-10-22v-2h-2v191l-8 1h-15l-23-1-1-1v-197l1-14 3-6 8-6 12-5 13-3z" fill="#03698E"/>
<path transform="translate(1291,528)" d="m0 0h19l16 4 21 9 19 11 12 10 2 1 26 2 16 3 20 6 18 8 24 15 23 16 16 13 11 9 26 26 9 11 11 14 10 14 13 20 9 17 11 26 11 25 14 29 17 35 7 9 26 12 14 6 19 11 20 14 21 16 14 12 8 8 11 15 1 3-8 3-14 4-36 6-23 6 2 4 7 7 18 12 16 10 13 10 13 12 9 11 12 13 6 8 3 5-1 3-8-6-7-6-10-7-12-8-30-15-20-11-16-12-12-11-8-10-8-15v-6l6-4 25-8 22-4 10-1 22-1 1-3h-2v-2l-5-2-10-7-19-13-18-12-12-7-25-10-27-9-8-6-8-11-12-23-19-41-16-35-9-21-11-21-10-15-10-14-13-16-11-12-9-10-8-7-14-12-13-10-21-14-16-9-23-11-16-5-46-5-13-11-15-9-17-8-17-6-4-1h-7l-5 3-2 4v8l7 14 10 13 14 19 10 17 8 19 12 36 6 15 8 15 16 20 2 3v11l-11 34-3 14-2 18v16l3 24 6 21 5 12 5 8 8 7h3l5-35 4-16 7-14 8-10 5-6h3l11 28 16 33 14 24 10 16 13 18 11 13 10 10 2 1v2l3 1v2l-5-2-8-7-10-9-15-13-12-11-11-11-9-11-8-13-11-21v-3l-2 1-6 34-4 11-6 7-7 3-8 1-10-3-12-11-7-10-9-19-5-15-4-22-1-12v-12l1-18 5-25 7-28 2-4-1-5-10-12-12-21-10-24-10-28-6-18-6-11-12-16-10-13-9-14-5-10-2-8v-10l3-10 6-8 5-4z" fill="#096A8C"/>
<path transform="translate(728,1072)" d="m0 0h37l3 1 1 111 3 6 5 4 7 3 7 1h95l17-1 1-125h49v184l-4 10-7 10-8 7-8 5-18 7-14 3-7 1-22 1h-123l-23-1-1-30 1-2 23-1 135-1 14-3 6-4 4-6 1-9v-12l-1-1-117-1-18-3-15-5-15-8-10-9-6-10-2-7-1-12v-97l1-5z" fill="#04698D"/>
<path transform="translate(1073 1e3)" d="m0 0h117l22 1v33l-153 1-10 3-5 5-2 8v27l3 9 5 5 9 4 75 1 20 2 16 4 15 6 11 7 8 8 6 11 1 5v40l-3 13-6 9-8 8-14 8-16 6-7 2-21 2-33 1h-50l-62-1-1-32 2-2 143-1 10-2 8-4 4-5 2-9v-24l-2-8-4-5-12-5-7-1-59-1-20-1-20-4-13-5-13-7-9-8-6-9-3-13v-26l1-14 3-10 5-8 8-8 14-8 15-5 10-2z" fill="#C8964F"/>
<path transform="translate(1322,1037)" d="m0 0h89l14 3 9 6 5 7 1 4v120l-3 8-7 8-5-2-11-10-8-7-11-10-4-2h-54l6 7 9 9 8 7 14 12v1h-48l-12-2-8-4-7-8-3-7-1-17v-100l2-8 8-9 12-5z" fill="#FEFEFE"/>
<path transform="translate(1518 1e3)" d="m0 0h49l1 167 2 12 4 6 6 4 13 3 117 1 26 1 1 2v12l-1 19-53 1-79-1-30-3-19-5-16-8-9-7-6-8-4-8-2-8-1-9v-170z" fill="#C8964F"/>
<path transform="translate(1386,621)" d="m0 0h9l8 6 6 9 1 6-4 11-4 4-4-4-8-15-10-12 1-4z" fill="#106C8A"/>
</svg>
