<?xml version="1.0" encoding="UTF-8"?>
<svg version="1.1" viewBox="0 0 2000 2000" width="1280" height="1280" xmlns="http://www.w3.org/2000/svg">
<path transform="translate(0)" d="m0 0h2e3v2e3h-2e3z" fill="#FDFDFD"/>
<path transform="translate(951,636)" d="m0 0h107l40 2 37 3 64 8 42 7 50 11 17 4 35 10 20 6 14 4 35 13 28 11 25 11 21 10 22 12 25 14 22 14 20 14 18 14 14 12 13 12 14 14 7 8 13 16 12 18 9 15 9 17 10 26 6 25 2 23v14l-1 20-4 22-6 20-9 21-10 20-14 21-13 16-7 8-9 10-19 19-8 7-12 10-16 12-18 13-15 9-19 12-28 15-21 11-35 15-31 12-37 13-22 7-24 6-15 4-18 5-32 7-54 10-19 3-49 6-56 5-17 1h-133l-69-6-41-5-39-6-48-9-42-10-31-8-7-2-23-7-33-11-24-9-29-12-20-9-20-10-22-12-14-8-11-7-20-13-9-6v-2l-4-2-13-9-9-7v-2l-5-2-13-12-19-19-7-8-9-10-12-16-7-10-10-17-10-21-7-19-6-25-3-24v-11l1-17 4-22 6-22 8-20 8-17 13-21 11-15 9-11 7-9h2l2-4 18-18 8-7 13-11 13-10 18-13 18-12 15-9 21-12 23-12 22-11 21-9 28-11 37-13 39-12 35-9 39-9 40-8 31-5 54-7 46-4 15-1z" fill="#777BB3"/>
<path transform="translate(930,726)" d="m0 0h87l7 3 3 3 1 3-1 16-9 48-5 24h61l22 1 25 4 16 4 15 6 11 7 10 9 6 7 8 16 4 11 1 7 2-7 7-34 4-20 5-8 7-3h167l18 1 23 4 20 6 16 8 14 9 10 9 7 7 9 14 6 12 5 15 3 15 1 11v13l-2 22-5 23-8 24-8 16-8 13-10 13-9 10-11 11-13 10-16 10-19 9-15 5-17 4-21 3-12 1-81 1-5 25-11 54-4 13-5 4h-94l-5-3-4-7 1-14 12-62 2-11h-95l-5-3-4-7 1-13 16-82 12-62 4-25v-13l-9-2-11-1-62-1-5 29-26 131-6 30-4 13-5 5-4 1h-89l-5-3-4-5-1-9 8-43 4-22-9 13-10 11-7 8-7 7-11 9-17 11-23 11-20 6-22 4-21 2-81 1-15 75-5 16-5 5-10 1h-22l-62-1-6-4-3-6v-8l18-92 30-152 15-77 7-35 3-13 5-6 10-2h164l24 2 23 5 15 5 16 8 11 7 10 9 9 9 7 11 8 16 4 13 1 5 4-15 16-80 14-71 4-16 5-4z" fill="#FAFBFC"/>
<path transform="translate(1219,838)" d="m0 0h175l27 4 17 5 15 7 12 8 10 9 9 10 8 14 5 14 4 22v20l-3 22-5 21-6 16-8 16-9 14-9 11-11 12-13 11-10 7-8 5-12 6-18 7-18 4-22 3-14 1-87 1-13 67-4 21-2 8h-81l5-27 19-97 4-23 6-28 6-32 6-28 7-36 3-16 11-55z" fill="#020101"/>
<path transform="translate(588,838)" d="m0 0h159l25 1 18 3 24 8 15 8 10 8 4 3v2l3 1 10 14 7 14 4 13 3 18v17l-2 20-4 18-5 16-8 19-9 15-11 14-12 13-14 12-19 12-7 4-16 6-17 5-18 3-24 2-87 1-3 17-3 13-6 32-5 25-2 8-2 1h-79l5-28 5-26 5-23 18-92 6-31 10-50 6-31 13-66z" fill="#020101"/>
<path transform="translate(932,741)" d="m0 0h80l-1 13-7 38-5 24-4 21 91 1 21 2 18 4 15 5 12 6 10 9 6 7 5 11 3 12 1 7v14l-1 13-11 57-5 26-5 23-7 38-5 23-3 12h-80l1-11 9-46 7-37 8-39 6-33 1-9v-11l-3-9-4-6-10-5-7-2-15-1-71-1-1 9-7 37-9 46-5 24-8 42-8 40-3 12h-80l5-27 6-31 7-35 7-37 5-26 4-19 6-31 5-24 17-86 8-43z" fill="#020101"/>
<path transform="translate(1342,682)" d="m0 0 8 1 16 5 11 3 35 13 28 11 25 11 21 10 22 12 25 14 22 14 20 14 18 14 14 12 13 12 14 14 7 8 13 16 12 18 9 15 9 17 10 26 6 25 2 23v14l-1 20-4 22-6 20-9 21-10 20-14 21-13 16-7 8-9 10-19 19-8 7-12 10-16 12-18 13-15 9-19 12-28 15-21 11-35 15-31 12-37 13-22 7-24 6-15 4-18 5-32 7-54 10-19 3-49 6-56 5-17 1h-133l-69-6-41-5-10-2v-2h24l2 2 9 1 2 1 10 1 6-2 38 2 8 2 1-2 2 1h9l9-1 10 1 3-2h6l2 1 4-3h7l1-5-7-1-1-4 3-2h9l8-1 3 1 1-1 77-1 39-2 36-3 58-7 43-7 30-6 36-8 37-10 29-9 37-13 37-15 25-12 23-11 19-10 23-14 22-15 16-12 9-7 11-9 13-12 6-5 7-8 11-12 13-18 10-15 13-25 9-25 5-24 1-11v-24l-3-23-5-20-10-25-9-17-8-12-8-11-10-12-9-11-19-19-8-7-17-14-19-14-15-10-16-10-23-13-27-14-28-13-34-14-30-11-15-5-1-2h8l1-2h-3v-4l-3-1-2-5 1-2-11-6-1-5-6 1-2-1z" fill="#4A518F"/>
<path transform="translate(951,636)" d="m0 0h107v1l7 2 7 1 3 2v2l7 1 6 4 1 2 4 2 2 4v5h-16l-45-1h-48l-35 1-49 3-53 5-56 8-28 5-26 5-36 8-41 11-51 16-30 11-29 12-28 13-29 15-27 16-22 15-15 11-16 13-14 12-23 23-13 17-8 10-2 1v-2h-3v-7h-3v-3l-2-1 3-9v-2h2v-5l4-6h2l2-4 5-9 4-5h2l2-4 9-9 2-4 8-7 13-11 13-10 18-13 18-12 15-9 21-12 23-12 22-11 21-9 28-11 37-13 39-12 35-9 39-9 40-8 31-5 54-7 46-4 15-1z" fill="#ADAFD3"/>
<path transform="translate(659,896)" d="m0 0h71l21 3 13 5 9 6 6 7 4 8 2 8v26l-3 15-6 21-8 16-8 11-8 8-11 7-14 6-11 3-21 3h-66l-1-4 3-13 8-39 6-31 5-27 5-24 2-13z" fill="#777BB3"/>
<path transform="translate(1290,896)" d="m0 0h71l21 3 13 5 9 6 6 7 4 8 2 9v23l-2 13-5 19-6 15-6 10-7 9-8 8-14 8-13 5-19 4-10 1h-66l1-11 8-40 6-31 10-51 3-18z" fill="#777BB3"/>
<path transform="translate(500,1251)" d="m0 0h5l6 3 12 3 1 2 9 2 3 2 7 2 12 5 8 2 11 4 9 1 1 3 5-2 4-1h3l13 2 7 3 12 3 20 6 24 7 22 5 20 5 15 3 32 6 38 6 39 5 41 4 35 2 88 2h49l28-1h17v1l-39 2-77 1-4 1-4-1-8 1-7 1v4l7 1 1 3-2 3h-7l-4 3-7-1-4 2-15-1-6 1h-8-4l-11-1-31-2-7 1-2 1-9-1-7-1-5-2-4-1h-15l-6-1v2l-11-1-51-9-41-9-47-12-7-2-23-7-33-11-24-9-29-12-20-9-20-10-7-4 1-4z" fill="#6D6EA0"/>
<path transform="translate(1290,896)" d="m0 0h71l21 3 13 5 9 6 6 7 4 8 2 9v23l-2 13-5 19-6 15-6 10-7 9-8 8-14 8-13 5-19 4-10 1h-66l1-11 8-40 6-31 10-51 3-18zm19 14-7 1-2 7-14 72-8 39v5h44l23-3 15-5 11-6 9-8 7-10 7-16 5-18 2-13v-19l-3-9-4-6-7-5-15-4-6-1-23-1z" fill="#FBFBFC"/>
<path transform="translate(659,896)" d="m0 0h71l21 3 13 5 9 6 6 7 4 8 2 8v26l-3 15-6 21-8 16-8 11-8 8-11 7-14 6-11 3-21 3h-66l-1-4 3-13 8-39 6-31 5-27 5-24 2-13zm15 14-3 1-3 12-18 92-3 14v5l6 1 38-1 23-3 15-5 11-6 10-9 8-13 6-15 5-21 1-7v-20l-3-9-6-7-8-4-18-4-23-1z" fill="#FAFBFC"/>
<path transform="translate(1238,657)" d="m0 0h7l42 9 21 5 35 10 2 3h-2v2h8l1 5 6 2 6 4-1 6 4 1v5h3l-1 3h-7l-4 1-22-7-21-6-20-6-39-10 5-4 1-2 2-1v-4h-6l-2-1-1-3-2-1v-3h-11v-2h-2l-2-3z" fill="#6C6EA0"/>
<path transform="translate(332,1113)" d="m0 0 4 2 6 9 13 16 9 11 8 8 7 8 10 10 11 8v2l4 2 6 7 9 4v2l8 7 6 3 8 8-4-1-8-5v-2l-4-2-13-9-9-7v-2l-5-2-13-12-19-19-7-8-9-10-12-16-6-9z" fill="#676A9F"/>
<path transform="translate(669,1319)" d="m0 0 19 4 13 3 16 4 17 4 19 4 25 5 21 3 6 2v2l-11-1-50-9-40-9-35-9z" fill="#5A609A"/>
<path transform="translate(811,1349)" d="m0 0h24l2 2 9 1 4 2v2l-15-1-22-3-2-1z" fill="#575D98"/>
<path transform="translate(1090,820)" d="m0 0 15 2v2l2 1-33-1v-2z" fill="#787AAA"/>
<path transform="translate(332,1113)" d="m0 0 4 2 6 9 9 11-1 2-5-3-7-9-6-9z" fill="#65689D"/>
<path transform="translate(755,821)" d="m0 0h18l7 3v1l-26-1-2-2z" fill="#7879A9"/>
<path transform="translate(669,1319)" d="m0 0 19 4 3 2v2l-18-4-4-1z" fill="#5C619B"/>
<path transform="translate(1221,654)" d="m0 0h9l5 1v3h-5l-1 2-7-3z" fill="#7173A4"/>
<path transform="translate(786,1345)" d="m0 0 15 1 4 2v2l-11-1-8-2z" fill="#5A5F99"/>
<path transform="translate(478,1239)" d="m0 0 4 5 9 5 3 3-5-1-13-7v-3h2z" fill="#6E71A4"/>
<path transform="translate(420,1205)" d="m0 0 5 2 4 3 4 2 8 8-4-1-8-5v-2l-4-2-5-3z" fill="#5B619A"/>
<path transform="translate(381,825)" d="m0 0 2 1-11 11-7 8-3 1v-2h2l2-4z" fill="#8E91C0"/>
<path transform="translate(858,1037)" d="m0 0 1 3-3 11-3 1-1-5z" fill="#7B7DAE"/>
<path transform="translate(408,1197)" d="m0 0 7 1 4 3 3 4-3 1-11-8z" fill="#696CA1"/>
<path transform="translate(627,1307)" d="m0 0 11 3 8 3v1l-9-1-10-4z" fill="#555B96"/>
<path transform="translate(1128,829)" d="m0 0h7l3 2h3v2h5v2l2 1-9-2-11-4z" fill="#7576A7"/>
<path transform="translate(612,1302)" d="m0 0 13 4 2 1v2l-9-2-6-3z" fill="#62679F"/>
<path transform="translate(324,1100)" d="m0 0 5 5v3l3 1v4h-2l-6-10z" fill="#7072A5"/>
<path transform="translate(332,1113)" d="m0 0 4 2 4 6-1 2-5-3-2-4z" fill="#6F71A4"/>
<path transform="translate(460,1232)" d="m0 0 4 1v2l5 1 2 1v2l2 1-5-1-8-5z" fill="#6B6EA2"/>
<path transform="translate(317,1086)" d="m0 0 3 4 4 8-1 4-6-12z" fill="#7F81B1"/>
<path transform="translate(1164,845)" d="m0 0 4 2 8 7-1 3-9-9-2-1z" fill="#8182B0"/>
<path transform="translate(1113,825)" d="m0 0h5l5 1 6 1-2 2-10-1z" fill="#7576A8"/>
<path transform="translate(776,1342)" d="m0 0 10 3v2l-10-1z" fill="#5E649D"/>
</svg>
