<?xml version="1.0" encoding="UTF-8"?>
<svg version="1.1" viewBox="0 0 2000 2000" width="1280" height="1280" xmlns="http://www.w3.org/2000/svg">
<path transform="translate(0)" d="m0 0h2e3v2e3h-2e3z" fill="#FDFDFD"/>
<path transform="translate(537,990)" d="m0 0h40l39 3 40 5 34 7 25 7 27 9 24 10 29 14 23 13 27 18 14 10 15 12 11 9 14 12 30 28 81 81 8 7 11 10 11 9 16 12 21 13 17 9 20 8 26 7 26 5 15 2h41l22-3 30-7 17-6 16-7 23-12 14-9 14-10 14-11 10-9 8-7 22-22 7-8 12-14 9-13 3-1-1 8-15 47-10 28-8 19-11 23-14 27-8 13-14 21-12 16-14 17-11 12-23 23-11 9-17 13-21 14-21 12-22 11-27 11-27 9-36 9-27 5-26 3-26 2h-83l-37-3-32-5-32-7-27-8-23-8-30-13-19-10-11-6-14-8-18-12-18-13-16-13-10-8-14-12-15-14-12-11-83-83-8-7-10-9-11-9-10-8-24-16-12-7-24-11-21-7-22-5-19-3-24-2h-19l-22 2-22 4-19 5-20 7-29 14-21 13-15 11-10 8-13 11-13 12-11 11-7 8-9 10-11 14-6 8h-2l1-9 13-41 8-23 13-32 16-33 11-19 12-19 10-14 10-13 9-11 14-15 11-12 20-18 14-11 18-13 20-12 14-8 23-11 26-10 25-8 32-8 28-5 38-5 20-2z" fill="#36BCFB"/>
<path transform="translate(962,458)" d="m0 0h78l37 3 39 6 33 8 25 8 22 8 27 12 27 14 23 14 16 11 19 14 14 11 15 13 10 9 12 11 13 12 85 85 8 7 14 12 14 11 21 14 22 12 25 10 23 6 25 5 14 2 14 1h16l24-2 30-6 23-7 21-9 16-8 18-11 17-12 10-8 11-9 12-11 25-25 7-8 11-14 7-10h2l-2 10-9 30-13 38-13 31-11 23-6 10-6 11-10 17-11 16-14 19-13 15-11 12-18 18-8 7-13 11-18 13-14 9-17 10-15 8-25 11-30 11-32 9-35 7-29 4-30 2-18 1h-47l-36-2-33-4-22-4-31-7-30-9-26-10-24-11-25-13-13-8-11-7-12-8-16-12-11-8-14-12-13-11-13-12-7-7-8-7-81-81-8-7-14-13-14-11-18-13-20-12-16-8-14-6-18-6-27-6-28-3h-40l-24 3-21 5-27 9-29 14-18 11-14 10-13 10-15 13-15 14-9 9-9 11-7 7-13 18-4 4h-2l2-9 7-24 14-41 8-20 12-27 10-20 18-30 11-16 13-17 9-11 12-13 7-8 10-10 11-9 10-9 13-10 17-12 22-13 19-10 21-9 24-9 30-9 31-7 32-5 27-3z" fill="#36BCFB"/>
</svg>
